<svg xmlns="http://www.w3.org/2000/svg" width="24" height="24" viewBox="0 0 24 24"><path d="M21 6.75h-1.468v-2.204l-3.032-0.047 0.016 2.25h-9.11l0.062-2.25-2.969 0.046v2.25l-1.5-0.046c-0.828 0-1.5 0.672-1.5 1.5v10.5c0 0.828 0.672 1.5 1.5 1.5h18c0.828 0 1.5-0.672 1.5-1.5v-10.5c0-0.828-0.672-1.5-1.5-1.5zM17.25 5.25h1.5v3h-1.5v-3zM7.5 10.359c0.906 0 1.641 0.965 1.641 2.156s-0.735 2.156-1.641 2.156-1.641-0.965-1.641-2.156 0.735-2.156 1.641-2.156zM5.25 5.25h1.5v3h-1.5v-3zM4.25 17.211c0 0 0.178-1.426 0.582-1.696s1.567-0.448 1.567-0.448 0.755 0.806 1.075 0.806c0.32 0 1.075-0.806 1.075-0.806s1.164 0.178 1.568 0.448c0.475 0.316 0.593 1.696 0.593 1.696h-6.461zM19.5 16.5h-6.75v-0.75h6.75v0.75zM19.5 15h-6.75v-0.75h6.75v0.75zM19.5 13.5h-6.75v-0.75h6.75v0.75zM19.5 12h-6.75v-0.75h6.75v0.75z"/></svg>