<svg xmlns="http://www.w3.org/2000/svg" width="32" height="32" viewBox="0 0 32 32"><path d="M16 .4C7.2.4 0 7.6 0 16.4c0 7 4.6 13 11 15.2.7 0 1-.4 1-.8v-3c-4.4 1-5.4-2-5.4-2-.7-1.7-1.8-2.2-1.8-2.2-1.4-1 .2-1 .2-1 1.6 0 2.4 1.7 2.4 1.7 1.4 2.4 3.8 1.7 4.7 1.3.2-1 .6-1.7 1-2-3.5-.5-7.2-2-7.2-8 0-1.8.6-3.2 1.6-4.3 0-.4-.7-2 .2-4.3 0 0 1.3-.4 4.4 1.7 1.3-.4 2.6-.6 4-.6s2.7.3 4 .7c3-2 4.4-1.7 4.4-1.7 1 2.2.3 4 .2 4.3 1 1 1.6 2.5 1.6 4.3 0 6-3.7 7.5-7.3 8 .5.3 1 1.3 1 2.8v4.4c0 .4.3 1 1 .8 6.4-2 11-8 11-15.2 0-8.8-7.2-16-16-16z"/></svg>
