<svg xmlns="http://www.w3.org/2000/svg" width="32" height="32" viewBox="-4 -4 40 40"><path d="M17.5 2H9C5.4 2 2 4.8 2 8c0 3.5 2.6 6.2 6.4 6.2H9c-.3.5-.5 1-.5 1.6 0 1 .5 1.7 1.2 2.3H8.2C3.6 18 0 21 0 24s4 5 8.6 5c5.3 0 8.2-3 8.2-6 0-2.4-.7-4-3-5.4-.7-.6-2-2-2-2.6 0-1 0-1.4 1.5-2.4 1.4-1 2.3-2.6 2.3-4.4 0-2-1-4.2-2.7-4.8h2.6l2-1.4zm-3 20.5v.8c0 2.5-1.4 4.4-6 4.4-3.2 0-5.5-2-5.5-4.5 0-2.4 3-4.4 6-4.3 1 0 1.6 0 2.2.2 1.7 1.2 3 2 3.3 3.3zm-5-9C7 13.2 5 11 4.7 8s1-5 3.3-4.8c2.2 0 4.3 2.3 4.6 5.2s-1 5-3.2 5zM26 8V2h-2v6h-6v2h6v6h2v-6h6V8z" fill="#d34836"/></svg>