<svg xmlns="http://www.w3.org/2000/svg" width="32" height="32" viewBox="-4 -4 40 40"><path d="M16 0C7.2 0 0 7.2 0 16s7.2 16 16 16 16-7.2 16-16S24.8 0 16 0zm9.5 25.5c-1.2 1.2-2.7 2.2-4.3 3l-1.2.3v-2.4c0-1.2-.4-2-1.3-2.7l1.5-.3 1.4-.4 1.4-.6 1-1 1-1.3.7-1.7.2-2.3c0-1.6-.6-3-1.7-4 .5-1.3.4-2.7-.2-4.2H24c-.3 0-.8 0-1.5.3S20.8 9 20 9.5C18.6 9 17.3 9 16 9c-1.3 0-2.6 0-3.8.4l-1.5-1L9.5 8l-1-.2h-.4c-.6 1.5-.6 3-.2 4-1 1.3-1.5 2.6-1.5 4.2 0 1 0 1.6.2 2.3L7 20l1 1.4 1.2 1 1.3.6 1.5.4 1.4.3c-.8.5-1.2 1.5-1.2 2.7V29l-1.4-.6c-1.6-.7-3-1.7-4.3-3s-2.2-2.6-3-4.2c-.6-1.6-1-3.4-1-5.2s.4-3.6 1-5.2c.8-1.6 1.8-3 3-4.3s2.7-2.2 4.3-3c1.6-.6 3.4-1 5.2-1s3.6.4 5.2 1c1.6.8 3 1.8 4.3 3s2.2 2.7 3 4.3c.6 1.6 1 3.4 1 5.2s-.4 3.6-1 5.2c-.8 1.6-1.8 3-3 4.3z"/></svg>